    <svg
      width="48"
      height="48"
      viewBox="0 0 48 48"
      fill="none"
      xmlns="http://www.w3.org/2000/svg"
    >
      <path
        d="M30.9447 38.7903C30.7731 38.7917 30.6066 38.7322 30.4745 38.6226C30.3425 38.5129 30.2536 38.3601 30.2234 38.1912C30.1932 38.0222 30.2238 37.8481 30.3096 37.6995C30.3955 37.5509 30.5312 37.4375 30.6927 37.3793C38.6933 34.4067 44.8907 27.033 46.3649 25.1693C44.6963 23.0639 36.9671 13.898 27.3999 12.0231C27.3034 12.0078 27.2109 11.9731 27.1281 11.9212C27.0453 11.8693 26.9738 11.8013 26.9179 11.7211C26.8619 11.641 26.8228 11.5503 26.8027 11.4547C26.7826 11.359 26.7819 11.2603 26.8009 11.1644C26.8198 11.0685 26.8578 10.9775 26.9128 10.8966C26.9677 10.8158 27.0383 10.7468 27.1205 10.6939C27.2027 10.641 27.2947 10.6052 27.391 10.5886C27.4873 10.5721 27.586 10.5751 27.6811 10.5976C38.9995 12.8196 47.4995 24.2527 47.8578 24.7373C47.95 24.8623 47.9997 25.0136 47.9997 25.1689C47.9997 25.3242 47.95 25.4755 47.8578 25.6005C47.5717 25.9886 40.7494 35.1872 31.1871 38.7466C31.1092 38.7742 31.0273 38.7889 30.9447 38.7903Z"
        fill="#0F1035"
      />
      <path
        d="M17.0661 38.7893C16.9802 38.789 16.895 38.7742 16.814 38.7455C7.25172 35.1868 0.429417 25.9876 0.141943 25.6001C0.0497439 25.4751 0 25.3239 0 25.1686C0 25.0132 0.0497439 24.862 0.141943 24.737C0.500938 24.2509 8.996 12.8227 20.3137 10.5972C20.4073 10.5778 20.5038 10.577 20.5978 10.5949C20.6917 10.6127 20.7811 10.6489 20.8611 10.7014C20.941 10.7539 21.0098 10.8215 21.0636 10.9006C21.1173 10.9796 21.155 11.0685 21.1744 11.1621C21.1938 11.2557 21.1946 11.3522 21.1768 11.4461C21.1589 11.54 21.1227 11.6295 21.0702 11.7094C21.0178 11.7894 20.9501 11.8582 20.871 11.9119C20.792 11.9657 20.7031 12.0034 20.6095 12.0228C11.0437 13.899 3.31457 23.0607 1.64667 25.1682C3.1014 27.0305 9.3175 34.3792 17.3182 37.3783C17.4796 37.4365 17.6153 37.5499 17.7012 37.6984C17.7871 37.847 17.8176 38.0212 17.7875 38.1901C17.7573 38.3591 17.6683 38.5119 17.5363 38.6215C17.4043 38.7312 17.2377 38.7906 17.0661 38.7893Z"
        fill="#0F1035"
      />
      <path
        d="M29.7894 37.8779C29.6244 37.8785 29.464 37.8225 29.3352 37.7193C29.2063 37.6161 29.1167 37.4718 29.0812 37.3106L28.9263 36.6315C28.8003 36.106 28.8441 35.554 29.0514 35.055C29.2588 34.5559 29.619 34.1354 30.0804 33.854C32.0633 32.644 33.6546 30.8871 34.6629 28.7944C35.6712 26.7018 36.0537 24.3624 35.7644 22.0576C35.4751 19.7528 34.5262 17.5805 33.0319 15.8021C31.5376 14.0236 29.5615 12.7145 27.3411 12.0322C26.0155 11.6344 24.6292 11.4784 23.2484 11.5718C22.3816 11.6226 21.5239 11.7755 20.693 12.0273H20.6396C18.4213 12.7135 16.4483 14.0255 14.9575 15.8057C13.4668 17.5859 12.5216 19.7586 12.2356 22.0629C11.9497 24.3672 12.335 26.7051 13.3454 28.7957C14.3558 30.8864 15.9482 32.6408 17.9315 33.8484C18.3912 34.1303 18.7499 34.5504 18.9563 35.0485C19.1627 35.5467 19.2063 36.0974 19.0807 36.6218L18.9258 37.3009C18.8745 37.4792 18.7569 37.631 18.5973 37.7255C18.4376 37.8199 18.2478 37.8497 18.0669 37.8088C17.886 37.7679 17.7275 37.6593 17.624 37.5054C17.5204 37.3515 17.4797 37.1638 17.51 36.9808L17.6648 36.3017C17.7197 36.0748 17.7024 35.8365 17.6152 35.62C17.5281 35.4036 17.3755 35.2197 17.1788 35.0941C14.9469 33.7407 13.1546 31.77 12.0183 29.4202C10.882 27.0703 10.4502 24.4417 10.7751 21.8518C11.1 19.2619 12.1677 16.8215 13.8493 14.8252C15.5309 12.8288 17.7544 11.362 20.2514 10.6018H20.3049C21.2343 10.3347 22.1906 10.1717 23.156 10.1157C24.7084 10.0178 26.266 10.1934 27.7577 10.6344C30.2539 11.3941 32.4768 12.8602 34.158 14.8556C35.8392 16.8511 36.9068 19.2906 37.2319 21.8795C37.5569 24.4684 37.1255 27.0961 35.9898 29.4453C34.8541 31.7944 33.0626 33.7645 30.8317 35.1177C30.6356 35.2451 30.4837 35.43 30.3967 35.647C30.3097 35.864 30.2919 36.1026 30.3456 36.3301L30.5005 37.0141C30.5219 37.1071 30.5247 37.2034 30.5087 37.2975C30.4927 37.3916 30.4583 37.4815 30.4074 37.5622C30.3564 37.6429 30.29 37.7127 30.212 37.7676C30.1339 37.8225 30.0458 37.8614 29.9526 37.8821C29.8983 37.8881 29.8434 37.8867 29.7894 37.8779Z"
        fill="#0F1035"
      />
      <path
        d="M24.136 46.0099C22.8393 45.9967 21.5946 45.4979 20.6475 44.6119C19.7005 43.7259 19.12 42.5172 19.0205 41.2242C19.0114 41.1235 19.0235 41.0221 19.0561 40.9264C19.0886 40.8307 19.1408 40.7429 19.2094 40.6687C19.2777 40.5955 19.3602 40.5371 19.4519 40.4971C19.5436 40.4571 19.6426 40.4363 19.7427 40.436H28.5294C28.6301 40.4368 28.7296 40.4577 28.8221 40.4977C28.9145 40.5376 28.998 40.5958 29.0675 40.6687C29.1351 40.7435 29.1868 40.8314 29.2192 40.9269C29.2517 41.0225 29.2644 41.1236 29.2564 41.2242C29.1547 42.5172 28.5728 43.7254 27.6252 44.611C26.6776 45.4966 25.433 45.9957 24.136 46.0099ZM20.6106 41.8929C20.8274 42.6603 21.2888 43.3359 21.9247 43.817C22.5606 44.2982 23.3362 44.5586 24.1336 44.5586C24.931 44.5586 25.7066 44.2982 26.3425 43.817C26.9784 43.3359 27.4398 42.6603 27.6565 41.8929H20.6106Z"
        fill="#0F1035"
      />
      <path
        d="M29.2466 41.8003H18.7615C18.0594 41.7686 17.3966 41.4674 16.9109 40.9594C16.4253 40.4513 16.1543 39.7756 16.1543 39.0728C16.1543 38.37 16.4253 37.6942 16.9109 37.1862C17.3966 36.6781 18.0594 36.3769 18.7615 36.3452H29.2466C29.9487 36.3769 30.6116 36.6781 31.0972 37.1862C31.5828 37.6942 31.8538 38.37 31.8538 39.0728C31.8538 39.7756 31.5828 40.4513 31.0972 40.9594C30.6116 41.4674 29.9487 41.7686 29.2466 41.8003ZM18.7615 37.8C18.4384 37.8213 18.1356 37.9647 17.9144 38.201C17.6931 38.4374 17.57 38.749 17.57 39.0728C17.57 39.3965 17.6931 39.7081 17.9144 39.9445C18.1356 40.1808 18.4384 40.3242 18.7615 40.3456H29.2466C29.5697 40.3242 29.8725 40.1808 30.0938 39.9445C30.315 39.7081 30.4381 39.3965 30.4381 39.0728C30.4381 38.749 30.315 38.4374 30.0938 38.201C29.8725 37.9647 29.5697 37.8213 29.2466 37.8H18.7615Z"
        fill="#0F1035"
      />
      <path
        d="M24.0042 29.2748C22.7464 29.2921 21.5118 28.9351 20.4575 28.249C19.4031 27.5629 18.5766 26.5788 18.083 25.4218C17.5893 24.2648 17.4509 22.9871 17.6853 21.7512C17.9196 20.5153 18.5162 19.377 19.3991 18.481C20.2821 17.585 21.4115 16.9718 22.6438 16.7194C23.8762 16.4669 25.1557 16.5866 26.3199 17.0632C27.484 17.5399 28.4801 18.3519 29.1815 19.3961C29.883 20.4403 30.2581 21.6695 30.2592 22.9274C30.2606 24.5953 29.605 26.1967 28.4343 27.3847C27.2635 28.5727 25.672 29.2518 24.0042 29.2748ZM24.0042 18.0493C23.0335 18.032 22.0797 18.304 21.2643 18.8309C20.4488 19.3577 19.8088 20.1154 19.4256 21.0075C19.0425 21.8995 18.9337 22.8854 19.1131 23.8395C19.2925 24.7936 19.752 25.6727 20.4329 26.3646C21.1138 27.0566 21.9854 27.5301 22.9365 27.7248C23.8876 27.9195 24.8751 27.8266 25.7732 27.4578C26.6712 27.0891 27.4391 26.4613 27.979 25.6544C28.5189 24.8476 28.8062 23.8982 28.8045 22.9274C28.8021 21.6478 28.2981 20.4201 27.4005 19.508C26.503 18.596 25.2836 18.0722 24.0042 18.0493Z"
        fill="#FC00FF"
      />
      <path
        d="M24.0044 6.63998C23.9088 6.63998 23.8142 6.62116 23.726 6.58458C23.6377 6.548 23.5576 6.49438 23.49 6.4268C23.4225 6.35921 23.369 6.27899 23.3325 6.1907C23.296 6.10241 23.2773 6.0078 23.2773 5.91227V2.71809C23.2773 2.52518 23.354 2.34017 23.4904 2.20376C23.6268 2.06736 23.8118 1.99072 24.0047 1.99072C24.1976 1.99072 24.3826 2.06736 24.519 2.20376C24.6554 2.34017 24.7321 2.52518 24.7321 2.71809V5.91227C24.7321 6.10509 24.6555 6.29001 24.5191 6.42635C24.3828 6.56269 24.1979 6.63929 24.0051 6.63929L24.0044 6.63998Z"
        fill="#FC00FF"
      />
      <path
        d="M13.0573 8.59904C12.907 8.59863 12.7606 8.55168 12.6381 8.46464C12.5156 8.37759 12.4231 8.25474 12.3733 8.11297L11.297 5.11114C11.2629 5.021 11.2471 4.92499 11.2504 4.82868C11.2538 4.73238 11.2763 4.6377 11.3165 4.55015C11.3568 4.4626 11.4141 4.38394 11.485 4.31872C11.556 4.25351 11.6392 4.20305 11.7298 4.17028C11.8204 4.13751 11.9166 4.12308 12.0129 4.12784C12.1091 4.13259 12.2035 4.15644 12.2904 4.19798C12.3774 4.23952 12.4552 4.29794 12.5194 4.36983C12.5836 4.44172 12.6328 4.52565 12.6642 4.61674L13.7405 7.61857C13.773 7.70834 13.7876 7.80364 13.7832 7.89902C13.7789 7.99441 13.7559 8.088 13.7154 8.17447C13.6749 8.26094 13.6177 8.33859 13.5472 8.40298C13.4767 8.46736 13.3942 8.51723 13.3045 8.54974C13.2255 8.58001 13.1418 8.59646 13.0573 8.59834V8.59904Z"
        fill="#FC00FF"
      />
      <path
        d="M3.42978 14.2388C3.3222 14.2384 3.21602 14.2144 3.1188 14.1683C3.02158 14.1222 2.93573 14.0552 2.86734 13.9722L0.845296 11.5474C0.728857 11.3982 0.675185 11.2095 0.695687 11.0213C0.716189 10.8332 0.809247 10.6604 0.955088 10.5398C1.10093 10.4192 1.28805 10.3602 1.4767 10.3754C1.66535 10.3906 1.84064 10.4787 1.96533 10.6211L3.99223 13.0459C4.07904 13.1529 4.13388 13.2822 4.15044 13.419C4.167 13.5558 4.14462 13.6944 4.08586 13.8191C4.0271 13.9437 3.93436 14.0492 3.81829 14.1235C3.70223 14.1977 3.56756 14.2377 3.42978 14.2388Z"
        fill="#FC00FF"
      />
      <path
        d="M44.5795 14.2386C44.4417 14.2375 44.307 14.1975 44.191 14.1232C44.0749 14.049 43.9822 13.9435 43.9234 13.8188C43.8646 13.6942 43.8423 13.5555 43.8588 13.4187C43.8754 13.2819 43.9302 13.1526 44.017 13.0456L46.0439 10.6208C46.1693 10.4809 46.344 10.3949 46.5313 10.3809C46.7187 10.3669 46.9042 10.426 47.0489 10.5458C47.1937 10.6656 47.2864 10.8368 47.3078 11.0235C47.3291 11.2101 47.2773 11.3978 47.1633 11.5471L45.1412 13.9719C45.0728 14.055 44.987 14.1219 44.8898 14.168C44.7926 14.2141 44.6871 14.2382 44.5795 14.2386Z"
        fill="#FC00FF"
      />
      <path
        d="M34.9533 8.59907C34.869 8.59872 34.7854 8.58393 34.7061 8.55532C34.6163 8.52282 34.5338 8.47295 34.4633 8.40856C34.3928 8.34417 34.3357 8.26653 34.2952 8.18006C34.2547 8.09359 34.2316 7.99999 34.2273 7.90461C34.223 7.80922 34.2375 7.71392 34.27 7.62415L35.3456 4.60218C35.4132 4.42355 35.5483 4.27867 35.7218 4.19885C35.8953 4.11904 36.0933 4.11071 36.2729 4.17565C36.4525 4.2406 36.5993 4.3736 36.6816 4.54593C36.764 4.71825 36.7752 4.91606 36.7128 5.09659L35.6414 8.11786C35.5903 8.25924 35.4966 8.3813 35.3733 8.46723C35.2499 8.55316 35.1029 8.59874 34.9526 8.59768L34.9533 8.59907Z"
        fill="#FC00FF"
      />
    </svg>