    <svg
      width="202"
      height="41"
      viewBox="0 0 202 41"
      fill="none"
      xmlns="http://www.w3.org/2000/svg"
    >
      <path
        d="M6.5504 19.4241V5.20811L1.2194 0.766113V20.3131C0.864401 33.4631 14.1024 39.4131 20.7664 40.7481V35.4171C9.2124 31.8661 6.5504 23.4221 6.5504 19.4241Z"
        fill="white"
      />
      <path
        d="M44.7552 0.766113L39.4242 5.20811V20.3081C39.4242 24.3081 38.0912 30.9701 26.0972 35.4081V40.7391C32.3162 39.4061 44.7552 33.4531 44.7552 20.3041V0.766113Z"
        fill="white"
      />
      <path
        d="M14.5471 9.65088C14.0431 9.76476 13.5929 10.0467 13.2703 10.4503C12.9477 10.8539 12.772 11.3552 12.772 11.8719C12.772 12.3886 12.9477 12.8899 13.2703 13.2935C13.5929 13.6971 14.0431 13.979 14.5471 14.0929H32.3171C32.8322 14.001 33.2964 13.7251 33.6233 13.3166C33.9502 12.908 34.1175 12.3946 34.0941 11.8719C34.0537 11.3311 33.8342 10.8191 33.4704 10.4169C33.1066 10.0147 32.6192 9.74517 32.0851 9.65088H14.5471Z"
        fill="white"
      />
      <path
        d="M32.0851 16.7593H14.5471C14.0431 16.8732 13.5929 17.1551 13.2703 17.5587C12.9477 17.9623 12.772 18.4636 12.772 18.9803C12.772 19.497 12.9477 19.9983 13.2703 20.4019C13.5929 20.8055 14.0431 21.0874 14.5471 21.2013H32.0851C32.0851 21.2013 34.0941 20.7573 34.0941 18.9803C34.0537 18.4395 33.8342 17.9275 33.4704 17.5253C33.1066 17.1231 32.6192 16.8536 32.0851 16.7593Z"
        fill="white"
      />
      <path
        d="M0.916218 9.65088C0.442218 10.0059 0.324219 11.2799 0.324219 11.8719C0.324219 13.2939 0.719218 13.9449 0.916218 14.0929H6.83922C6.91622 14.0929 7.43122 13.6489 7.43122 11.8719C7.43122 10.4499 6.98522 9.79888 6.76122 9.65088H0.916218Z"
        fill="#0F1035"
      />
      <path
        d="M6.76222 16.7593H0.916218C0.716218 16.9073 0.324219 17.5593 0.324219 18.9803C0.324219 20.4013 0.719218 21.0533 0.916218 21.2013H6.76222C6.76222 21.2013 7.43222 20.7573 7.43222 18.9803C7.43222 17.5593 6.98522 16.9073 6.76222 16.7593Z"
        fill="#0F1035"
      />
      <path
        d="M39.1213 9.65088C38.6473 10.0059 38.5293 11.2799 38.5293 11.8719C38.5293 13.2939 38.9243 13.9449 39.1213 14.0929H45.0443C45.1213 14.0929 45.6363 13.6489 45.6363 11.8719C45.6363 10.4499 45.1903 9.79888 44.9663 9.65088H39.1213Z"
        fill="#0F1035"
      />
      <path
        d="M44.9673 16.7593H39.1213C38.9213 16.9073 38.5293 17.5593 38.5293 18.9803C38.5293 20.4013 38.9243 21.0533 39.1213 21.2013H44.9673C44.9673 21.2013 45.6373 20.7573 45.6373 18.9803C45.6373 17.5593 45.1903 16.9073 44.9673 16.7593Z"
        fill="#0F1035"
      />
      <path
        d="M64.3124 25.8573C63.8361 25.8853 63.3596 25.8073 62.9171 25.6291C62.4746 25.4508 62.0772 25.1766 61.7534 24.8263C61.1038 23.9588 60.7885 22.8863 60.8654 21.8053V16.8303H63.1254V21.5923C63.0851 22.2075 63.2474 22.819 63.5874 23.3333C63.7647 23.5423 63.9895 23.7058 64.243 23.8102C64.4965 23.9146 64.7712 23.9568 65.0444 23.9333C65.3358 23.9415 65.6256 23.8853 65.8928 23.7686C66.16 23.6519 66.3982 23.4777 66.5904 23.2583C67.0314 22.7332 67.2541 22.0588 67.2124 21.3743V16.8303H69.4874V25.6443H67.4754L67.2984 24.1503C67.0276 24.6697 66.6145 25.1012 66.1074 25.3943C65.5635 25.7119 64.942 25.8722 64.3124 25.8573ZM76.1184 25.8573C75.2893 25.8737 74.466 25.7163 73.7014 25.3953C73.0373 25.1044 72.4656 24.6372 72.0484 24.0443C71.6317 23.4055 71.4151 22.6569 71.4263 21.8943H73.8264C73.8385 22.4472 74.061 22.9747 74.4484 23.3693C74.6713 23.5717 74.9322 23.7277 75.216 23.8283C75.4998 23.9289 75.8007 23.9721 76.1014 23.9553C76.6157 23.983 77.1239 23.8326 77.5404 23.5293C77.7135 23.388 77.8517 23.2087 77.9442 23.0052C78.0366 22.8018 78.0808 22.5797 78.0734 22.3563C78.0858 22.1347 78.0492 21.9131 77.9663 21.7073C77.8833 21.5014 77.756 21.3164 77.5933 21.1653C77.2314 20.8504 76.8077 20.6143 76.3494 20.4723L74.6794 19.9033C73.8573 19.6522 73.1044 19.2144 72.4794 18.6243C71.9632 18.0602 71.692 17.3142 71.7254 16.5503C71.6945 15.8838 71.8747 15.2245 72.2404 14.6663C72.6147 14.1271 73.1316 13.7027 73.7334 13.4403C74.4217 13.1471 75.1622 12.996 75.9103 12.996C76.6585 12.996 77.399 13.1471 78.0874 13.4403C78.6918 13.7068 79.2092 14.1379 79.5804 14.6843C79.9564 15.2471 80.1601 15.9075 80.1664 16.5843H77.7324C77.7266 16.3674 77.6782 16.1537 77.5898 15.9556C77.5015 15.7574 77.3749 15.5785 77.2174 15.4293C77.0417 15.2524 76.8303 15.115 76.5974 15.0262C76.3644 14.9374 76.1152 14.8993 75.8664 14.9143C75.4151 14.8884 74.969 15.0203 74.6044 15.2873C74.4376 15.416 74.3049 15.5835 74.2177 15.7752C74.1306 15.9669 74.0916 16.1771 74.1044 16.3873C74.0954 16.5721 74.1256 16.7568 74.193 16.9291C74.2603 17.1014 74.3634 17.2576 74.4953 17.3873C74.8092 17.6535 75.171 17.8571 75.5614 17.9873C76.012 18.1533 76.5274 18.331 77.1074 18.5203C77.6908 18.719 78.2556 18.9687 78.7954 19.2663C79.2914 19.5385 79.7126 19.9291 80.0214 20.4033C80.3505 20.9424 80.5113 21.5674 80.4834 22.1983C80.4862 22.8371 80.3132 23.4643 79.9834 24.0113C79.6276 24.5907 79.1166 25.0587 78.5084 25.3623C77.762 25.7128 76.9425 25.8824 76.1184 25.8573ZM86.7034 25.8573C85.88 25.8731 85.0663 25.6771 84.3404 25.2883C83.6626 24.9179 83.1029 24.3641 82.7254 23.6903C82.3242 22.9619 82.122 22.1407 82.1394 21.3093C82.1238 20.4633 82.3193 19.6267 82.7084 18.8753C83.0779 18.1865 83.6319 17.6141 84.3084 17.2223C85.0452 16.8082 85.8803 16.6009 86.7254 16.6223C87.5262 16.6065 88.3169 16.8028 89.0174 17.1913C89.6683 17.5584 90.2038 18.1001 90.5634 18.7553C90.9457 19.4197 91.1423 20.1748 91.1324 20.9413C91.1324 21.0713 91.1264 21.2083 91.1144 21.3503C91.1024 21.4923 91.1084 21.6403 91.0964 21.7943H84.3964C84.3979 22.0906 84.4589 22.3836 84.5758 22.6558C84.6927 22.9281 84.8631 23.1741 85.0769 23.3793C85.2906 23.5844 85.5434 23.7446 85.8202 23.8503C86.097 23.9559 86.3922 24.0049 86.6884 23.9943C87.0945 24.0099 87.4962 23.9056 87.8433 23.6943C88.152 23.4938 88.3983 23.2107 88.5544 22.8773H90.8644C90.6955 23.4393 90.4111 23.9597 90.0294 24.4053C89.6409 24.8624 89.155 25.2266 88.6074 25.4713C88.0093 25.7389 87.3584 25.8708 86.7034 25.8573ZM86.7254 18.4653C86.194 18.457 85.675 18.6258 85.2504 18.9453C84.8005 19.2925 84.5067 19.8038 84.4334 20.3673H88.8224C88.8162 20.1048 88.7563 19.8463 88.6462 19.6079C88.5361 19.3695 88.3782 19.1562 88.1824 18.9813C87.7785 18.6328 87.2585 18.4486 86.7254 18.4653ZM93.0454 25.6443V12.8503H95.3204V25.6443H93.0454ZM97.6454 25.6443V12.8503H99.9204V25.6443H97.6454ZM106.532 25.6443V13.2053H114.653V15.0353H108.807V18.4503H114.12V20.2273H108.807V23.8163H114.653V25.6463L106.532 25.6443ZM115.916 25.6443L119.116 21.2373L115.916 16.8303H118.35L120.589 19.9573L122.81 16.8303H125.262L122.046 21.2373L125.262 25.6443H122.805L120.584 22.5173L118.345 25.6443H115.916ZM126.716 29.5533V16.8303H128.742L128.991 18.0923C129.297 17.6816 129.677 17.3319 130.111 17.0613C130.668 16.7443 131.302 16.5905 131.941 16.6173C132.724 16.6032 133.494 16.8112 134.162 17.2173C134.815 17.6211 135.349 18.1917 135.708 18.8703C136.082 19.6084 136.277 20.424 136.277 21.2513C136.277 22.0786 136.082 22.8943 135.708 23.6323C135.345 24.3033 134.812 24.8672 134.162 25.2673C133.49 25.6638 132.722 25.8666 131.941 25.8533C131.34 25.8668 130.744 25.739 130.2 25.4803C129.714 25.2411 129.298 24.88 128.992 24.4323V29.5503L126.716 29.5533ZM131.461 23.8673C131.795 23.8772 132.127 23.8175 132.436 23.692C132.745 23.5665 133.024 23.3779 133.256 23.1383C133.495 22.888 133.681 22.5922 133.803 22.2685C133.925 21.9449 133.981 21.6 133.967 21.2543C133.98 20.9064 133.923 20.5594 133.801 20.2334C133.679 19.9073 133.494 19.6086 133.256 19.3543C133.027 19.1102 132.748 18.9176 132.439 18.789C132.129 18.6604 131.796 18.5988 131.461 18.6083C131.124 18.5981 130.788 18.6592 130.475 18.7878C130.163 18.9163 129.881 19.1094 129.648 19.3543C129.415 19.6074 129.233 19.9041 129.114 20.2273C128.995 20.5506 128.941 20.8941 128.955 21.2383C128.93 21.9378 129.178 22.6196 129.648 23.1383C129.882 23.3777 130.163 23.566 130.474 23.6915C130.784 23.8169 131.117 23.8768 131.451 23.8673H131.461ZM142.591 25.8573C141.768 25.8729 140.954 25.677 140.228 25.2883C139.55 24.9174 138.989 24.3629 138.611 23.6883C138.21 22.9599 138.008 22.1387 138.025 21.3073C138.01 20.4613 138.206 19.6249 138.594 18.8733C138.964 18.1845 139.518 17.6121 140.194 17.2203C140.931 16.8063 141.766 16.599 142.611 16.6203C143.412 16.6042 144.203 16.8006 144.903 17.1893C145.555 17.556 146.09 18.0978 146.449 18.7533C146.832 19.4176 147.029 20.1727 147.018 20.9393C147.018 21.0693 147.013 21.2063 147 21.3483C146.987 21.4903 146.995 21.6383 146.982 21.7923H140.282C140.284 22.0886 140.345 22.3816 140.462 22.6538C140.579 22.9261 140.749 23.1721 140.963 23.3773C141.177 23.5824 141.429 23.7426 141.706 23.8483C141.983 23.9539 142.278 24.0029 142.574 23.9923C142.98 24.008 143.382 23.9037 143.729 23.6923C144.038 23.492 144.285 23.2089 144.44 22.8753H146.75C146.582 23.4374 146.297 23.9579 145.915 24.4033C145.527 24.8606 145.041 25.2248 144.493 25.4693C143.893 25.739 143.24 25.8716 142.581 25.8573H142.591ZM142.609 18.4653C142.078 18.4571 141.559 18.626 141.134 18.9453C140.685 19.2927 140.391 19.804 140.317 20.3673H144.706C144.7 20.1048 144.64 19.8463 144.53 19.6079C144.42 19.3695 144.262 19.1562 144.066 18.9813C143.66 18.6303 143.136 18.446 142.599 18.4653H142.609ZM148.929 25.6443V16.8303H150.955L151.168 18.4833C151.487 17.9036 151.959 17.4227 152.532 17.0935C153.106 16.7644 153.759 16.5996 154.42 16.6173V19.0173H153.78C153.325 19.0097 152.873 19.0881 152.447 19.2483C152.057 19.4019 151.731 19.6842 151.523 20.0483C151.285 20.5404 151.175 21.0845 151.203 21.6303V25.6463L148.929 25.6443ZM157.201 15.4623C156.822 15.4756 156.453 15.342 156.17 15.0893C156.043 14.9687 155.942 14.8224 155.874 14.6601C155.807 14.4977 155.775 14.323 155.779 14.1473C155.773 13.9741 155.805 13.8018 155.873 13.6422C155.94 13.4826 156.042 13.3397 156.17 13.2233C156.453 12.9707 156.822 12.837 157.201 12.8503C157.386 12.8427 157.571 12.8717 157.745 12.9357C157.919 12.9997 158.078 13.0975 158.214 13.2233C158.347 13.3368 158.453 13.4788 158.524 13.6387C158.595 13.7987 158.629 13.9725 158.623 14.1473C158.628 14.3246 158.593 14.5008 158.523 14.6634C158.452 14.8261 158.347 14.9715 158.214 15.0893C158.077 15.2164 157.916 15.3148 157.74 15.3789C157.565 15.4429 157.378 15.4713 157.191 15.4623H157.201ZM156.064 25.6443V16.8303H158.325V25.6443H156.064ZM164.995 25.8573C164.172 25.8731 163.358 25.6771 162.632 25.2883C161.954 24.9174 161.393 24.3629 161.015 23.6883C160.614 22.9599 160.412 22.1387 160.429 21.3073C160.414 20.4613 160.609 19.6247 160.998 18.8733C161.368 18.1845 161.922 17.6121 162.598 17.2203C163.335 16.8062 164.17 16.5989 165.015 16.6203C165.816 16.6045 166.607 16.8008 167.307 17.1893C167.959 17.556 168.494 18.0978 168.853 18.7533C169.236 19.4176 169.433 20.1727 169.422 20.9393C169.422 21.0693 169.416 21.2063 169.404 21.3483C169.392 21.4903 169.398 21.6383 169.386 21.7923H162.686C162.688 22.0886 162.749 22.3816 162.866 22.6538C162.983 22.9261 163.153 23.1721 163.367 23.3773C163.581 23.5824 163.833 23.7426 164.11 23.8483C164.387 23.9539 164.682 24.0029 164.978 23.9923C165.384 24.0079 165.786 23.9036 166.133 23.6923C166.442 23.492 166.689 23.2089 166.844 22.8753H169.154C168.986 23.4373 168.701 23.9577 168.319 24.4033C167.931 24.8604 167.445 25.2246 166.897 25.4693C166.296 25.7391 165.643 25.8716 164.984 25.8573H164.995ZM165.013 18.4653C164.482 18.457 163.963 18.6258 163.538 18.9453C163.089 19.2925 162.795 19.8038 162.721 20.3673H167.11C167.104 20.1048 167.044 19.8463 166.934 19.6079C166.824 19.3695 166.666 19.1562 166.47 18.9813C166.064 18.6302 165.539 18.4458 165.002 18.4653H165.013ZM171.333 25.6443V16.8303H173.325L173.503 18.3233C173.771 17.8075 174.177 17.3767 174.676 17.0793C175.233 16.7621 175.866 16.6024 176.506 16.6173C176.98 16.5905 177.453 16.669 177.893 16.8473C178.332 17.0256 178.726 17.2992 179.047 17.6483C179.708 18.5108 180.031 19.5854 179.953 20.6693V25.6453H177.678V20.8823C177.719 20.2671 177.556 19.6556 177.216 19.1413C177.042 18.9338 176.82 18.771 176.57 18.6666C176.319 18.5622 176.048 18.5193 175.777 18.5413C175.481 18.5329 175.185 18.5889 174.912 18.7054C174.639 18.822 174.395 18.9962 174.195 19.2163C173.767 19.7472 173.553 20.4194 173.595 21.1003V25.6493L171.333 25.6443ZM186.462 25.8573C185.631 25.8746 184.81 25.6725 184.081 25.2713C183.398 24.8845 182.833 24.3194 182.446 23.6363C182.061 22.8951 181.859 22.0719 181.859 21.2363C181.859 20.4008 182.061 19.5775 182.446 18.8363C182.833 18.1532 183.398 17.5881 184.081 17.2013C184.81 16.8001 185.631 16.598 186.462 16.6153C187.483 16.5819 188.485 16.8949 189.305 17.5033C190.083 18.0953 190.609 18.9581 190.78 19.9203H188.38C188.276 19.5101 188.023 19.1535 187.669 18.9203C187.311 18.6673 186.882 18.5364 186.443 18.5473C186.141 18.5437 185.842 18.6054 185.566 18.7281C185.29 18.8508 185.043 19.0317 184.843 19.2583C184.416 19.8273 184.186 20.5195 184.186 21.2308C184.186 21.9422 184.416 22.6343 184.843 23.2033C185.197 23.5861 185.674 23.8317 186.191 23.8967C186.708 23.9616 187.231 23.8418 187.668 23.5583C188.024 23.322 188.278 22.9603 188.379 22.5453H190.779C190.593 23.4971 190.07 24.3495 189.304 24.9453C188.487 25.5688 187.479 25.891 186.451 25.8573H186.462ZM197.081 25.8573C196.258 25.8729 195.444 25.677 194.718 25.2883C194.04 24.9174 193.479 24.3629 193.101 23.6883C192.7 22.9599 192.498 22.1387 192.515 21.3073C192.5 20.4613 192.696 19.6249 193.084 18.8733C193.454 18.1845 194.008 17.6121 194.684 17.2203C195.421 16.8063 196.256 16.599 197.101 16.6203C197.902 16.6042 198.693 16.8006 199.393 17.1893C200.039 17.5572 200.57 18.0978 200.925 18.7503C201.308 19.4146 201.505 20.1697 201.494 20.9363C201.494 21.0663 201.489 21.2033 201.476 21.3453C201.463 21.4873 201.471 21.6353 201.458 21.7893H194.758C194.76 22.0856 194.821 22.3786 194.938 22.6508C195.055 22.9231 195.225 23.1691 195.439 23.3743C195.653 23.5794 195.905 23.7396 196.182 23.8453C196.459 23.9509 196.754 23.9999 197.05 23.9893C197.456 24.005 197.858 23.9007 198.205 23.6893C198.514 23.489 198.761 23.2059 198.916 22.8723H201.226C201.058 23.4344 200.773 23.9549 200.391 24.4003C200.003 24.8576 199.517 25.2218 198.969 25.4663C198.373 25.7352 197.724 25.8687 197.07 25.8573H197.081ZM197.099 18.4653C196.568 18.4571 196.049 18.626 195.624 18.9453C195.175 19.2927 194.881 19.804 194.807 20.3673H199.196C199.19 20.1048 199.13 19.8463 199.02 19.6079C198.91 19.3695 198.752 19.1562 198.556 18.9813C198.15 18.6301 197.625 18.4457 197.088 18.4653H197.099Z"
        fill="white"
      />
    </svg>