    <svg
      width="36"
      height="32"
      viewBox="0 0 36 32"
      fill="none"
      xmlns="http://www.w3.org/2000/svg"
    >
      <path
        d="M4.94844 14.9408V3.64739L0.711646 0.117676V15.6472C0.428816 26.0942 10.9466 30.8231 16.2411 31.8823V27.6469C7.06471 24.8236 4.94844 18.1177 4.94844 14.9408Z"
        fill="#EAEDFF"
      />
      <path
        d="M35.2994 0.117676L31.064 3.64739V15.6472C31.064 18.8233 30.0034 24.1179 20.4756 27.6469V31.8823C25.4166 30.8217 35.2987 26.0942 35.2987 15.6472L35.2994 0.117676Z"
        fill="#EAEDFF"
      />
      <path
        d="M11.2962 7.17627C10.8952 7.26619 10.5368 7.48997 10.28 7.81075C10.0232 8.13154 9.8833 8.53021 9.8833 8.94113C9.8833 9.35205 10.0232 9.75072 10.28 10.0715C10.5368 10.3923 10.8952 10.6161 11.2962 10.706H25.4165C25.8268 10.6336 26.1966 10.4142 26.4569 10.0888C26.7172 9.76349 26.85 9.35448 26.8306 8.9383C26.798 8.50878 26.6231 8.10238 26.3338 7.78329C26.0444 7.46421 25.6569 7.25062 25.2326 7.17627H11.2962Z"
        fill="#EAEDFF"
      />
      <path
        d="M25.2326 12.8232H11.2962C10.8952 12.9132 10.5368 13.1369 10.28 13.4577C10.0232 13.7785 9.8833 14.1772 9.8833 14.5881C9.8833 14.999 10.0232 15.3977 10.28 15.7185C10.5368 16.0393 10.8952 16.263 11.2962 16.353H25.2326C25.2326 16.353 26.8285 15.9994 26.8285 14.5853C26.7959 14.1561 26.6214 13.7499 26.3325 13.4308C26.0435 13.1118 25.6565 12.898 25.2326 12.8232Z"
        fill="#EAEDFF"
      />
      <path
        d="M0.470912 7.17627C0.0947483 7.4591 0 8.47022 0 8.94396C0 10.0753 0.313941 10.5907 0.470912 10.7116H5.17649C5.23801 10.7116 5.6474 10.3581 5.6474 8.94396C5.6474 7.81264 5.29387 7.29718 5.11569 7.17627H0.470912Z"
        fill="#0F1035"
      />
      <path
        d="M5.11498 12.8232H0.470912C0.313941 12.9406 0 13.4596 0 14.5909C0 15.7222 0.313941 16.2377 0.470912 16.3586H5.11498C5.11498 16.3586 5.6467 16.0051 5.6467 14.5909C5.6467 13.4596 5.29245 12.9406 5.11498 12.8232Z"
        fill="#0F1035"
      />
      <path
        d="M30.8232 7.17627C30.447 7.4591 30.3523 8.47022 30.3523 8.94396C30.3523 10.0753 30.6662 10.5907 30.8232 10.7116H35.5288C35.5903 10.7116 35.9997 10.3581 35.9997 8.94396C35.9997 7.81264 35.6462 7.29718 35.468 7.17627H30.8232Z"
        fill="#0F1035"
      />
      <path
        d="M35.4673 12.8232H30.8232C30.6662 12.9406 30.3523 13.4596 30.3523 14.5909C30.3523 15.7222 30.6662 16.2377 30.8232 16.3586H35.4673C35.4673 16.3586 35.999 16.0051 35.999 14.5909C35.999 13.4596 35.6447 12.9406 35.4673 12.8232Z"
        fill="#0F1035"
      />
    </svg>