<svg width="20" height="20" viewBox="0 0 20 20" fill="none" xmlns="http://www.w3.org/2000/svg">
<path d="M2.42442 10.9763C2.13978 10.357 2.13978 9.64263 2.42442 9.02337C3.742 6.15686 6.63866 4.1665 10.0002 4.1665C13.3617 4.1665 16.2584 6.15686 17.576 9.02337C17.8606 9.64264 17.8606 10.357 17.576 10.9763C16.2584 13.8428 13.3617 15.8332 10.0002 15.8332C6.63866 15.8332 3.74201 13.8428 2.42442 10.9763Z" stroke="#111111" stroke-width="1.66667"/>
<path d="M12.5002 9.99984C12.5002 11.3805 11.3809 12.4998 10.0002 12.4998C8.61948 12.4998 7.50019 11.3805 7.50019 9.99984C7.50019 8.61913 8.61948 7.49984 10.0002 7.49984C11.3809 7.49984 12.5002 8.61913 12.5002 9.99984Z" stroke="#111111" stroke-width="1.66667"/>
</svg>
