<svg width="20" height="20" viewBox="0 0 20 20" fill="none" xmlns="http://www.w3.org/2000/svg">
<path d="M2.50033 4.16683L8.97709 9.20431C9.57894 9.67242 10.4217 9.67242 11.0236 9.20431L17.5003 4.16683M4.33366 16.6668H15.667C16.6004 16.6668 17.0671 16.6668 17.4236 16.4852C17.7372 16.3254 17.9922 16.0704 18.152 15.7568C18.3337 15.4003 18.3337 14.9336 18.3337 14.0002V6.00016C18.3337 5.06674 18.3337 4.60003 18.152 4.24351C17.9922 3.92991 17.7372 3.67494 17.4236 3.51515C17.0671 3.3335 16.6004 3.3335 15.667 3.3335H4.33366C3.40024 3.3335 2.93353 3.3335 2.57701 3.51515C2.2634 3.67494 2.00844 3.92991 1.84865 4.24351C1.66699 4.60003 1.66699 5.06674 1.66699 6.00016V14.0002C1.66699 14.9336 1.66699 15.4003 1.84865 15.7568C2.00844 16.0704 2.2634 16.3254 2.57701 16.4852C2.93353 16.6668 3.40024 16.6668 4.33366 16.6668Z" stroke="#1C1C25" stroke-width="1.66667"/>
</svg>
