<svg width="20" height="20" viewBox="0 0 20 20" fill="none" xmlns="http://www.w3.org/2000/svg">
<g clip-path="url(#clip0_1000_64)">
<path d="M0.833008 7.49967C0.833008 5.16612 0.833008 3.99935 1.28715 3.10805C1.68662 2.32404 2.32404 1.68662 3.10805 1.28715C3.99935 0.833008 5.16612 0.833008 7.49967 0.833008H12.4997C14.8332 0.833008 16 0.833008 16.8913 1.28715C17.6753 1.68662 18.3127 2.32404 18.7122 3.10805C19.1663 3.99935 19.1663 5.16612 19.1663 7.49967V12.4997C19.1663 14.8332 19.1663 16 18.7122 16.8913C18.3127 17.6753 17.6753 18.3127 16.8913 18.7122C16 19.1663 14.8332 19.1663 12.4997 19.1663H7.49967C5.16612 19.1663 3.99935 19.1663 3.10805 18.7122C2.32404 18.3127 1.68662 17.6753 1.28715 16.8913C0.833008 16 0.833008 14.8332 0.833008 12.4997V7.49967Z" stroke="#111111" stroke-width="1.66667"/>
<path d="M9.99967 5.83301C8.61896 5.83301 7.49967 6.9523 7.49967 8.33301C7.49967 8.96665 7.73541 9.54523 8.12396 9.98584C8.24148 10.1191 8.28686 10.3064 8.21808 10.4702L7.15162 13.0104C6.92106 13.5596 7.32438 14.1663 7.91999 14.1663H12.0794C12.675 14.1663 13.0783 13.5596 12.8477 13.0104L11.7813 10.4702C11.7125 10.3064 11.7579 10.1191 11.8754 9.98584C12.2639 9.54523 12.4997 8.96665 12.4997 8.33301C12.4997 6.9523 11.3804 5.83301 9.99967 5.83301Z" stroke="#111111" stroke-width="1.66667"/>
</g>
<defs>
<clipPath id="clip0_1000_64">
<rect width="20" height="20" fill="white"/>
</clipPath>
</defs>
</svg>
